# This file uses centimeters as units for non-parametric coordinates.

mtllib Crystal_Shard.mtl
g default
v -9.837988 16.963270 3.199509
v -3.902973 12.380384 7.503799
v 0.674242 14.490662 11.252441
v 6.877861 16.640207 7.664146
v 8.727169 15.258799 0.740204
v 5.138871 14.490662 -5.463409
v -1.785060 14.490662 -7.312721
v -6.348274 33.847847 1.532646
v -2.102513 31.386494 10.366562
v 7.693480 29.438028 4.444168
v 8.395790 24.324007 -4.004761
v 1.000500 35.645954 -5.499832
v 0.515211 3.742934 1.828033
v -2.321862 42.969135 2.053329
v -4.224873 8.511570 -0.841148
v 2.187766 7.332379 5.415817
vt 0.500000 0.004747
vt 0.405898 0.125300
vt 0.343750 0.156250
vt 0.358538 0.308082
vt 0.500000 0.312500
vt 0.609714 0.259655
vt 0.656207 0.159471
vt 0.406208 0.313476
vt 0.463849 0.199384
vt 0.468750 0.312500
vt 0.531250 0.312500
vt 0.598067 0.306751
vt 0.637766 0.802342
vt 0.494455 0.801170
vt 0.448627 0.505999
vt 0.522406 0.697263
vt 0.569630 0.656862
vt 0.593749 0.688432
vt 0.625000 0.688443
vt 0.405374 0.701218
vt 0.298406 0.894084
vt 0.656249 0.843750
vt 0.500000 0.150000
vt 0.602247 0.625169
vt 0.462441 0.076868
vt 0.208354 1.033491
vt 0.881548 1.076667
vt 0.861920 0.763063
vt 1.186904 0.354426
vt 0.457987 0.554556
vt 0.554338 0.103340
vt 0.428695 0.159344
vt 0.448627 0.505999
vt 0.358538 0.308082
vt 0.358538 0.308082
vt 0.358538 0.308082
vt 0.358538 0.308082
vt 0.358538 0.308082
vt 1.186904 0.354426
vt 0.494455 0.801170
vt 0.494455 0.801170
vt 0.405374 0.701218
vt 0.602247 0.625169
vt 0.343750 0.156250
vn 0.348012 0.017952 -0.937318
vn 0.264366 0.050285 -0.963111
vn 0.267037 0.047322 -0.962524
vn -0.754756 0.117032 -0.645482
vn -0.730798 0.133605 -0.669390
vn -0.702516 0.152079 -0.695229
vn -0.853439 -0.504800 -0.129690
vn -0.740433 -0.596304 -0.310131
vn -0.584591 -0.649771 0.485850
vn 0.474344 -0.673263 -0.567200
vn 0.580407 -0.691592 0.429916
vn 0.197412 -0.969667 -0.144136
vn -0.271413 -0.558513 -0.783835
vn -0.914991 0.401821 0.036497
vn 0.227026 0.570699 0.789152
vn 0.202649 0.964195 0.171059
vn 0.517847 0.505269 0.690317
vn 0.827090 0.508662 -0.239135
vn 0.827090 0.508662 -0.239135
vn 0.827090 0.508662 -0.239135
vn 0.534721 0.711999 -0.455116
vn -0.615762 -0.060005 0.785644
vn -0.107024 0.034510 0.993657
vn 0.372332 0.137393 0.917874
vn -0.778427 0.099702 -0.619767
vn 0.727409 -0.484026 0.486410
vn 0.757012 -0.651769 -0.046152
vn 0.279311 -0.570617 0.772258
vn -0.615966 -0.059962 0.785487
vn -0.810823 0.154315 0.564582
vn -0.704472 0.025375 0.709279
vn -0.852936 0.222886 0.472040
vn 0.961880 0.153594 0.226264
vn 0.991346 0.003448 0.131228
vn 0.987819 0.035083 0.151600
vn 0.993791 -0.036927 0.104960
vn 0.534593 0.174006 0.827002
vn 0.493509 0.143333 0.857849
vn 0.529624 -0.049810 -0.846769
vn 0.856794 -0.214200 -0.469065
vn 0.804826 0.561986 -0.190860
s 1
g Environment_PowerCore_TowerA:pCylinder5
usemtl initialShadingGroup
f 11/17/1 7/12/2 12/18/3
s 2
f 7/12/4 8/19/5 12/18/6
s 3
f 1/1/7 15/31/8 2/2/9
f 6/6/10 16/32/11 13/23/12
f 7/7/13 6/6/10 13/23/12
f 1/1/7 7/7/13 15/31/8
s 5
f 8/41/14 9/21/15 14/24/16
f 9/21/15 10/42/17 14/24/16
s off
f 10/27/18 11/28/19 12/26/20
s 5
f 12/22/21 8/40/14 14/43/16
s 6
f 2/9/22 3/10/23 9/30/24
s 3
f 15/31/8 7/7/13 13/23/12
s 2
f 8/19/5 7/12/4 1/13/25
s 3
f 2/2/9 15/31/8 13/23/12
f 4/36/26 16/32/11 5/5/27
f 5/5/27 16/32/11 6/6/10
f 4/37/26 3/3/28 16/32/11
f 3/3/28 2/2/9 16/32/11
f 16/32/11 2/2/9 13/23/12
s 8
f 2/9/29 9/30/30 1/8/31
f 1/8/31 9/30/30 8/14/32
s 9
f 5/11/33 11/29/34 4/35/35
f 4/34/35 11/39/34 10/16/36
s 6
f 10/20/37 9/33/24 4/4/38
f 4/38/38 9/15/24 3/44/23
s 1
f 7/12/2 11/17/1 6/6/39
f 6/6/39 11/17/1 5/5/40
s 5
f 14/25/16 10/27/41 12/26/21
